<?xml version="1.0" encoding="utf-8"?>
<!-- Generator: Adobe Illustrator 27.3.1, SVG Export Plug-In . SVG Version: 6.00 Build 0)  -->
<svg version="1.1" id="Capa_1" xmlns="http://www.w3.org/2000/svg" xmlns:xlink="http://www.w3.org/1999/xlink" x="0px" y="0px"
	 viewBox="0 0 300 45" style="enable-background:new 0 0 300 45;" xml:space="preserve">
<style type="text/css">
	.st0{fill:#EA3A61;}
</style>
<path class="st0" d="M82.41,31.18c-3.44,0-6.3-1.15-8.58-3.45c-2.26-2.28-3.39-5.12-3.39-8.52c0-3.42,1.13-6.26,3.39-8.52
	c2.28-2.3,5.14-3.45,8.58-3.45c2.08,0,4.01,0.49,5.77,1.46c1.76,0.98,3.14,2.3,4.13,3.96l-3.91,2.27
	c-0.57-1.03-1.38-1.84-2.43-2.42c-1.05-0.58-2.24-0.87-3.55-0.87c-2.24,0-4.04,0.7-5.43,2.1c-1.36,1.43-2.04,3.24-2.04,5.46
	c0,2.19,0.68,4,2.04,5.43c1.38,1.4,3.19,2.1,5.43,2.1c1.31,0,2.5-0.29,3.57-0.87c1.06-0.58,1.87-1.38,2.42-2.38l3.91,2.27
	c-0.99,1.67-2.36,2.99-4.13,3.96C86.41,30.69,84.49,31.18,82.41,31.18z M109.01,28.68c-1.67,1.67-3.73,2.5-6.18,2.5
	c-2.46,0-4.52-0.83-6.18-2.5c-1.67-1.67-2.5-3.73-2.5-6.18c0-2.43,0.83-4.48,2.5-6.15c1.69-1.69,3.75-2.53,6.18-2.53
	c2.43,0,4.49,0.84,6.18,2.53c1.69,1.69,2.53,3.74,2.53,6.15C111.54,24.93,110.69,26.99,109.01,28.68z M99.64,25.76
	c0.85,0.86,1.92,1.28,3.19,1.28c1.27,0,2.33-0.43,3.19-1.28c0.86-0.86,1.28-1.94,1.28-3.25s-0.43-2.4-1.28-3.26
	c-0.85-0.85-1.92-1.28-3.19-1.28c-1.27,0-2.33,0.43-3.19,1.28c-0.83,0.88-1.25,1.96-1.25,3.26S98.8,24.88,99.64,25.76z
		M132.71,13.82c1.89,0,3.39,0.61,4.52,1.84c1.13,1.23,1.69,2.87,1.69,4.93v10.13h-4.24v-9.83c0-0.99-0.24-1.75-0.72-2.3
	c-0.48-0.55-1.16-0.82-2.04-0.82c-0.96,0-1.72,0.32-2.25,0.95c-0.54,0.64-0.81,1.56-0.81,2.76v9.24h-4.24v-9.83
	c0-0.99-0.24-1.75-0.72-2.3c-0.48-0.55-1.16-0.82-2.04-0.82c-0.94,0-1.69,0.32-2.25,0.97c-0.56,0.65-0.84,1.56-0.84,2.75v9.24
	h-4.24V14.28h4.24v1.74c0.99-1.47,2.51-2.2,4.57-2.2c2.04,0,3.53,0.79,4.47,2.37C128.89,14.61,130.52,13.82,132.71,13.82z
		M152.11,13.82c2.21,0,4.1,0.84,5.66,2.53c1.58,1.69,2.37,3.74,2.37,6.15c0,2.46-0.79,4.52-2.37,6.18c-1.53,1.67-3.42,2.5-5.66,2.5
	c-2.3,0-4.08-0.8-5.33-2.4v8.52h-4.24V14.28h4.24v1.94C148.03,14.62,149.81,13.82,152.11,13.82z M148.07,25.85
	c0.85,0.86,1.94,1.28,3.25,1.28s2.4-0.43,3.25-1.28c0.88-0.88,1.32-1.99,1.32-3.35c0-1.36-0.44-2.47-1.32-3.32
	c-0.85-0.88-1.94-1.32-3.25-1.32s-2.4,0.44-3.25,1.32c-0.86,0.86-1.28,1.96-1.28,3.32C146.78,23.86,147.21,24.98,148.07,25.85z
		M175.62,16.22v-1.94h4.24v16.44h-4.24v-1.94c-1.27,1.6-3.06,2.4-5.36,2.4c-2.19,0-4.08-0.83-5.65-2.5
	c-1.56-1.69-2.33-3.75-2.33-6.18c0-2.41,0.78-4.46,2.33-6.15c1.58-1.69,3.46-2.53,5.65-2.53
	C172.56,13.82,174.35,14.62,175.62,16.22z M167.79,25.85c0.86,0.86,1.94,1.28,3.26,1.28s2.4-0.43,3.25-1.28
	c0.88-0.88,1.32-1.99,1.32-3.35c0-1.36-0.44-2.47-1.32-3.32c-0.86-0.88-1.94-1.32-3.25-1.32s-2.4,0.44-3.26,1.32
	c-0.85,0.86-1.28,1.96-1.28,3.32C166.51,23.86,166.94,24.98,167.79,25.85z M192.85,13.82c1.82,0,3.3,0.6,4.44,1.81
	c1.18,1.23,1.78,2.89,1.78,5v10.09h-4.24v-9.57c0-1.07-0.29-1.91-0.87-2.5c-0.58-0.59-1.38-0.89-2.38-0.89
	c-1.12,0-2,0.35-2.65,1.04c-0.65,0.69-0.97,1.7-0.97,3.04v8.88h-4.24V14.28h4.24v1.84C188.96,14.59,190.59,13.82,192.85,13.82z
		M209.39,25.33l3.65-11.05h4.54l-5.98,16.44c-0.86,2.37-1.99,4.08-3.4,5.14c-1.41,1.06-3.17,1.54-5.28,1.43v-3.95
	c1.12,0.02,2.02-0.22,2.7-0.72c0.68-0.51,1.22-1.32,1.61-2.43l-6.74-15.91h4.64L209.39,25.33z M232.53,7.7v18.68h8.78v4.34H228V7.7
	H232.53z M257.36,28.68c-1.67,1.67-3.73,2.5-6.18,2.5c-2.46,0-4.52-0.83-6.18-2.5c-1.67-1.67-2.5-3.73-2.5-6.18
	c0-2.43,0.83-4.48,2.5-6.15c1.69-1.69,3.75-2.53,6.18-2.53c2.43,0,4.49,0.84,6.18,2.53c1.69,1.69,2.53,3.74,2.53,6.15
	C259.89,24.93,259.04,26.99,257.36,28.68z M247.99,25.76c0.86,0.86,1.92,1.28,3.19,1.28s2.33-0.43,3.19-1.28
	c0.86-0.86,1.28-1.94,1.28-3.25s-0.43-2.4-1.28-3.26c-0.86-0.85-1.92-1.28-3.19-1.28s-2.33,0.43-3.19,1.28
	c-0.83,0.88-1.25,1.96-1.25,3.26S247.15,24.88,247.99,25.76z M275.47,16.32v-2.04h4.14v15.65c0,2.52-0.84,4.46-2.53,5.82
	c-1.67,1.34-3.68,2.01-6.05,2.01c-3.73,0-6.32-1.34-7.79-4.01l3.62-2.07c0.81,1.53,2.25,2.3,4.31,2.3c1.34,0,2.39-0.35,3.16-1.05
	c0.77-0.7,1.15-1.7,1.15-2.99v-1.77c-1.25,1.67-3,2.5-5.26,2.5c-2.32,0-4.27-0.81-5.85-2.43c-1.56-1.67-2.33-3.66-2.33-5.98
	s0.79-4.31,2.37-5.95c1.58-1.64,3.52-2.47,5.82-2.47C272.47,13.82,274.22,14.65,275.47,16.32z M274.17,25.48
	c0.86-0.84,1.3-1.92,1.3-3.24s-0.44-2.38-1.32-3.19c-0.86-0.86-1.95-1.28-3.29-1.28c-1.32,0-2.42,0.43-3.32,1.28
	c-0.85,0.81-1.28,1.87-1.28,3.19s0.43,2.4,1.3,3.24c0.87,0.84,1.97,1.27,3.3,1.27S273.31,26.32,274.17,25.48z M297.47,28.68
	c-1.67,1.67-3.73,2.5-6.18,2.5s-4.52-0.83-6.18-2.5c-1.67-1.67-2.5-3.73-2.5-6.18c0-2.43,0.83-4.48,2.5-6.15
	c1.69-1.69,3.75-2.53,6.18-2.53c2.43,0,4.49,0.84,6.18,2.53S300,20.09,300,22.5C300,24.93,299.16,26.99,297.47,28.68z M288.1,25.76
	c0.86,0.86,1.92,1.28,3.19,1.28c1.27,0,2.33-0.43,3.19-1.28c0.86-0.86,1.28-1.94,1.28-3.25s-0.43-2.4-1.28-3.26
	c-0.86-0.85-1.92-1.28-3.19-1.28c-1.27,0-2.33,0.43-3.19,1.28c-0.83,0.88-1.25,1.96-1.25,3.26S287.26,24.88,288.1,25.76z"/>
<path class="st0" d="M0,0v45h59.52V0H0z M58.06,43.55H1.45V1.45h56.61V43.55z M6.19,40.47L5.21,39.4l20.22-18.78l5.3,5.71
	l12.45-11.57l10.86,11.7l-1.06,0.99L43.1,16.82L31.72,27.4l6.62,7.12l-1.06,0.99L25.35,22.68L6.19,40.47z M15.85,18.26
	c3.1,0,5.63-2.53,5.63-5.63c0-3.1-2.53-5.63-5.63-5.63c-3.1,0-5.63,2.53-5.63,5.63C10.22,15.74,12.74,18.26,15.85,18.26z
		M15.85,8.46c2.3,0,4.18,1.87,4.18,4.18c0,2.3-1.87,4.18-4.18,4.18c-2.3,0-4.18-1.87-4.18-4.18C11.67,10.33,13.54,8.46,15.85,8.46z
	"/>
</svg>
